<svg width="800" height="450" viewBox="0 0 800 450" fill="none" xmlns="http://www.w3.org/2000/svg">
    <defs>
        <linearGradient id="dsGrad" x1="0%" y1="0%" x2="100%" y2="100%">
            <stop offset="0%" stop-color="#3B82F6" />
            <stop offset="100%" stop-color="#60A5FA" />
        </linearGradient>
        <pattern id="dsGrid" width="40" height="40" patternUnits="userSpaceOnUse">
            <path d="M 40 0 L 0 0 0 40" fill="none" stroke="rgba(255,255,255,0.04)" stroke-width="1"/>
            <circle cx="40" cy="40" r="1.5" fill="rgba(255,255,255,0.15)"/>
        </pattern>
        <filter id="dsSoftGlow" x="-50%" y="-50%" width="200%" height="200%">
            <feGaussianBlur stdDeviation="80" />
        </filter>
        <filter id="dsGlow" x="-20%" y="-20%" width="140%" height="140%">
            <feGaussianBlur stdDeviation="4" result="blur" />
            <feComposite in="SourceGraphic" in2="blur" operator="over" />
        </filter>
    </defs>

    <rect width="800" height="450" fill="#0F172A" />
    <circle cx="70" cy="70" r="270" fill="#1D4ED8" opacity="0.22" filter="url(#dsSoftGlow)" />
    <circle cx="760" cy="400" r="260" fill="#3B82F6" opacity="0.2" filter="url(#dsSoftGlow)" />
    <rect width="800" height="450" fill="url(#dsGrid)" />

    <!-- Data Science / ML Pipeline visualization (right side) -->
    <!-- Scatter plot -->
    <rect x="460" y="80" width="150" height="130" rx="10" fill="#0A1525" stroke="#3B82F6" stroke-width="1.5" opacity="0.9"/>
    <text x="535" y="97" text-anchor="middle" fill="#60A5FA" font-size="10" font-family="monospace" opacity="0.8">Scatter Plot</text>
    <!-- Grid lines -->
    <line x1="472" y1="110" x2="598" y2="110" stroke="#3B82F6" stroke-width="0.5" opacity="0.2"/>
    <line x1="472" y1="128" x2="598" y2="128" stroke="#3B82F6" stroke-width="0.5" opacity="0.2"/>
    <line x1="472" y1="146" x2="598" y2="146" stroke="#3B82F6" stroke-width="0.5" opacity="0.2"/>
    <line x1="472" y1="164" x2="598" y2="164" stroke="#3B82F6" stroke-width="0.5" opacity="0.2"/>
    <!-- Data points (cluster 1 - blue) -->
    <circle cx="490" cy="155" r="4" fill="#3B82F6" opacity="0.8"/>
    <circle cx="500" cy="148" r="4" fill="#3B82F6" opacity="0.8"/>
    <circle cx="510" cy="160" r="4" fill="#3B82F6" opacity="0.7"/>
    <circle cx="505" cy="143" r="3" fill="#3B82F6" opacity="0.7"/>
    <circle cx="495" cy="168" r="3" fill="#60A5FA" opacity="0.7"/>
    <!-- Data points (cluster 2 - cyan) -->
    <circle cx="548" cy="115" r="4" fill="#22D3EE" opacity="0.8"/>
    <circle cx="558" cy="120" r="4" fill="#22D3EE" opacity="0.8"/>
    <circle cx="554" cy="108" r="3" fill="#22D3EE" opacity="0.7"/>
    <circle cx="565" cy="125" r="3" fill="#67E8F9" opacity="0.7"/>
    <circle cx="542" cy="112" r="3" fill="#22D3EE" opacity="0.7"/>
    <!-- Regression line -->
    <line x1="480" y1="165" x2="590" y2="110" stroke="#FBBF24" stroke-width="1.5" stroke-dasharray="4,3" opacity="0.7"/>
    <!-- Axes -->
    <line x1="472" y1="175" x2="598" y2="175" stroke="#3B82F6" stroke-width="1" opacity="0.4"/>
    <line x1="472" y1="100" x2="472" y2="175" stroke="#3B82F6" stroke-width="1" opacity="0.4"/>

    <!-- Heatmap -->
    <rect x="622" y="80" width="150" height="130" rx="10" fill="#0A1525" stroke="#3B82F6" stroke-width="1.5" opacity="0.9"/>
    <text x="697" y="97" text-anchor="middle" fill="#60A5FA" font-size="10" font-family="monospace" opacity="0.8">Heatmap</text>
    <!-- heatmap cells 4x4 -->
    <rect x="634" y="103" width="24" height="24" rx="2" fill="#1E3A5F" opacity="0.9"/>
    <rect x="660" y="103" width="24" height="24" rx="2" fill="#1D4ED8" opacity="0.9"/>
    <rect x="686" y="103" width="24" height="24" rx="2" fill="#3B82F6" opacity="0.9"/>
    <rect x="712" y="103" width="24" height="24" rx="2" fill="#60A5FA" opacity="0.9"/>
    <rect x="634" y="130" width="24" height="24" rx="2" fill="#2563EB" opacity="0.9"/>
    <rect x="660" y="130" width="24" height="24" rx="2" fill="#60A5FA" opacity="0.9"/>
    <rect x="686" y="130" width="24" height="24" rx="2" fill="#93C5FD" opacity="0.9"/>
    <rect x="712" y="130" width="24" height="24" rx="2" fill="#BFDBFE" opacity="0.9"/>
    <rect x="634" y="157" width="24" height="24" rx="2" fill="#1E3A5F" opacity="0.9"/>
    <rect x="660" y="157" width="24" height="24" rx="2" fill="#1D4ED8" opacity="0.9"/>
    <rect x="686" y="157" width="24" height="24" rx="2" fill="#2563EB" opacity="0.9"/>
    <rect x="712" y="157" width="24" height="24" rx="2" fill="#3B82F6" opacity="0.9"/>
    <rect x="634" y="184" width="24" height="24" rx="2" fill="#3B82F6" opacity="0.9"/>
    <rect x="660" y="184" width="24" height="24" rx="2" fill="#93C5FD" opacity="0.9"/>
    <rect x="712" y="184" width="24" height="24" rx="2" fill="#60A5FA" opacity="0.9"/>
    <rect x="686" y="184" width="24" height="24" rx="2" fill="#1D4ED8" opacity="0.9"/>

    <!-- ML Pipeline flow (bottom) -->
    <rect x="460" y="225" width="312" height="60" rx="10" fill="#0A1525" stroke="#3B82F6" stroke-width="1.5" opacity="0.9"/>
    <!-- Steps -->
    <rect x="472" y="238" width="52" height="34" rx="6" fill="#1D4ED8" opacity="0.7"/>
    <text x="498" y="252" text-anchor="middle" fill="#fff" font-size="9" font-family="monospace">Data</text>
    <text x="498" y="264" text-anchor="middle" fill="#fff" font-size="9" font-family="monospace">Prep</text>
    <text x="530" y="256" fill="#60A5FA" font-size="14" font-family="monospace" opacity="0.8">→</text>
    <rect x="540" y="238" width="52" height="34" rx="6" fill="#2563EB" opacity="0.7"/>
    <text x="566" y="252" text-anchor="middle" fill="#fff" font-size="9" font-family="monospace">Feature</text>
    <text x="566" y="264" text-anchor="middle" fill="#fff" font-size="9" font-family="monospace">Eng.</text>
    <text x="598" y="256" fill="#60A5FA" font-size="14" font-family="monospace" opacity="0.8">→</text>
    <rect x="608" y="238" width="52" height="34" rx="6" fill="#3B82F6" opacity="0.7"/>
    <text x="634" y="252" text-anchor="middle" fill="#fff" font-size="9" font-family="monospace">Train</text>
    <text x="634" y="264" text-anchor="middle" fill="#fff" font-size="9" font-family="monospace">Model</text>
    <text x="666" y="256" fill="#60A5FA" font-size="14" font-family="monospace" opacity="0.8">→</text>
    <rect x="676" y="238" width="52" height="34" rx="6" fill="#60A5FA" opacity="0.7"/>
    <text x="702" y="252" text-anchor="middle" fill="#0F172A" font-size="9" font-family="monospace" font-weight="700">Deploy</text>
    <text x="702" y="264" text-anchor="middle" fill="#0F172A" font-size="9" font-family="monospace" font-weight="700">API</text>

    <!-- Metrics box -->
    <rect x="460" y="300" width="148" height="70" rx="10" fill="#0A1525" stroke="#3B82F6" stroke-width="1.5" opacity="0.9"/>
    <text x="534" y="318" text-anchor="middle" fill="#60A5FA" font-size="10" font-family="monospace" opacity="0.8">Model Metrics</text>
    <text x="470" y="333" fill="#93C5FD" font-size="10" font-family="monospace" opacity="0.8">Accuracy:  94.3%</text>
    <text x="470" y="348" fill="#93C5FD" font-size="10" font-family="monospace" opacity="0.7">Precision: 91.8%</text>
    <text x="470" y="363" fill="#93C5FD" font-size="10" font-family="monospace" opacity="0.65">F1-Score:  0.927</text>

    <!-- Confusion matrix hint -->
    <rect x="622" y="300" width="150" height="70" rx="10" fill="#0A1525" stroke="#3B82F6" stroke-width="1.5" opacity="0.9"/>
    <text x="697" y="318" text-anchor="middle" fill="#60A5FA" font-size="10" font-family="monospace" opacity="0.8">Confusion Matrix</text>
    <rect x="636" y="326" width="26" height="26" rx="3" fill="#1D4ED8" opacity="0.8"/>
    <text x="649" y="343" text-anchor="middle" fill="#fff" font-size="10" font-family="monospace">42</text>
    <rect x="665" y="326" width="26" height="26" rx="3" fill="#0A1525" stroke="#3B82F6" stroke-width="1" opacity="0.6"/>
    <text x="678" y="343" text-anchor="middle" fill="#60A5FA" font-size="10" font-family="monospace">3</text>
    <rect x="636" y="355" width="26" height="12" rx="3" fill="#0A1525" stroke="#3B82F6" stroke-width="1" opacity="0.6"/>
    <text x="649" y="364" text-anchor="middle" fill="#60A5FA" font-size="10" font-family="monospace">5</text>
    <rect x="665" y="355" width="26" height="12" rx="3" fill="#3B82F6" opacity="0.7"/>
    <text x="678" y="364" text-anchor="middle" fill="#fff" font-size="10" font-family="monospace">38</text>

    <!-- Content (left) -->
    <g transform="translate(60, 90)">
        <rect x="0" y="0" width="155" height="32" rx="16" fill="rgba(59,130,246,0.12)" stroke="rgba(59,130,246,0.35)" stroke-width="1" />
        <circle cx="16" cy="16" r="6" fill="#3B82F6" />
        <text x="32" y="21" fill="#60A5FA" font-size="13" font-family="Segoe UI, -apple-system, Roboto, sans-serif" font-weight="700" letter-spacing="1">DATA TRACK</text>

        <text x="0" y="95" fill="#ffffff" font-size="44" font-family="Segoe UI, -apple-system, Roboto, sans-serif" font-weight="800" letter-spacing="-1">AI + Data</text>
        <text x="0" y="148" fill="#60A5FA" font-size="44" font-family="Segoe UI, -apple-system, Roboto, sans-serif" font-weight="800" letter-spacing="-1">Science</text>
        <text x="0" y="195" fill="rgba(255,255,255,0.65)" font-size="19" font-family="Segoe UI, -apple-system, Roboto, sans-serif" font-weight="400">ML Pipelines &amp; AI Insights</text>

        <rect x="0" y="218" width="66" height="28" rx="14" fill="rgba(59,130,246,0.15)" stroke="rgba(59,130,246,0.4)" stroke-width="1"/>
        <text x="33" y="237" text-anchor="middle" fill="#60A5FA" font-size="13" font-family="Segoe UI, -apple-system, Roboto, sans-serif" font-weight="600">Python</text>
        <rect x="78" y="218" width="60" height="28" rx="14" fill="rgba(59,130,246,0.15)" stroke="rgba(59,130,246,0.4)" stroke-width="1"/>
        <text x="108" y="237" text-anchor="middle" fill="#60A5FA" font-size="13" font-family="Segoe UI, -apple-system, Roboto, sans-serif" font-weight="600">Pandas</text>
        <rect x="150" y="218" width="68" height="28" rx="14" fill="rgba(59,130,246,0.15)" stroke="rgba(59,130,246,0.4)" stroke-width="1"/>
        <text x="184" y="237" text-anchor="middle" fill="#60A5FA" font-size="13" font-family="Segoe UI, -apple-system, Roboto, sans-serif" font-weight="600">Tableau</text>

        <rect x="0" y="260" width="150" height="44" rx="10" fill="url(#dsGrad)" opacity="0.9" filter="url(#dsGlow)"/>
        <text x="75" y="288" fill="#ffffff" font-size="16" font-family="Segoe UI, -apple-system, Roboto, sans-serif" font-weight="700" text-anchor="middle">Enroll Now →</text>
    </g>
</svg>